<?xml version="1.0" standalone="no"?><!DOCTYPE svg PUBLIC "-//W3C//DTD SVG 1.1//EN" "http://www.w3.org/Graphics/SVG/1.1/DTD/svg11.dtd"><svg t="1582787285643" class="icon" viewBox="0 0 1024 1024" version="1.1" xmlns="http://www.w3.org/2000/svg" p-id="2758" xmlns:xlink="http://www.w3.org/1999/xlink" width="20" height="20"><defs><style type="text/css"></style></defs><path d="M921.6 0a102.4 102.4 0 0 1 102.4 102.4v819.2a102.4 102.4 0 0 1-102.4 102.4H102.4a102.4 102.4 0 0 1-102.4-102.4V102.4a102.4 102.4 0 0 1 102.4-102.4h819.2z m-96.9728 263.168L467.0464 719.872 196.1984 427.6224a51.2 51.2 0 1 0-75.1616 69.632L432.7424 833.536a51.2 51.2 0 0 0 77.824-3.2768L905.216 326.3488a51.2 51.2 0 1 0-80.5888-63.1808z" fill="#FE7193" p-id="2759"></path></svg>