<?xml version="1.0" standalone="no"?><!DOCTYPE svg PUBLIC "-//W3C//DTD SVG 1.1//EN" "http://www.w3.org/Graphics/SVG/1.1/DTD/svg11.dtd"><svg t="1580884030723" class="icon" viewBox="0 0 1024 1024" version="1.1" xmlns="http://www.w3.org/2000/svg" p-id="4236" xmlns:xlink="http://www.w3.org/1999/xlink" width="24" height="24"><defs><style type="text/css"></style></defs><path d="M955.9 360.5c-2.5-35.5-33.3-62.8-68.7-60.9h-75.6l-27.3-7.3-2 7.3H272.7l-27.6-104.2-0.8 0.2-5.9-20.2h-175v40l147.6 7.2 21.9 81.8c-22.3 9.2-38.7 30.5-40.5 56.1l-0.2 2.3 48.5 297.9c2.9 34 31.6 60.1 65.3 60.1 1.1 0 2.2 0 3.3-0.1h529.5c1.1 0.1 2.2 0.1 3.3 0.1 33.8 0 62.5-26.1 65.3-60.1l48.5-297.9v-2.3z m-243.8 201h-117v-91.6h141.6l-24.6 91.6z m66-91.6h120l-14.9 91.6H753.5l24.6-91.6z m-527.9 0h114.6l24.5 91.6H265.1l-14.9-91.6z m156 0H555v91.6H430.8l-24.6-91.6z m-10.7-40l-24.2-90.4h183.8v90.4H395.5z m159.6 171.6v79.2h-92.4l-21.2-79.2h113.6z m40 0h106.3l-21.2 79.2h-85.1v-79.2z m0-171.6v-90.4h176.5l-24.2 90.4H595.1z m-335.7-90.4h70.5l24.2 90.4H243.7l-11.2-68.6c2-13 13.6-22.6 26.9-21.8z m48.9 341.2h-0.6c-14 0.8-26.1-9.8-27.1-23.8l-0.1-0.9-8.9-54.5H400l21.2 79.2H308.3zM867.8 656l-0.1 0.9c-1 14-13.1 24.6-27.1 23.8H721.5l21.2-79.2h133.9l-8.7 53.6-0.1 0.9z m36.8-226.1H788.8l24.2-90.4h75.9c13.3-0.8 24.9 8.8 26.9 21.8l-11.2 68.6zM369.2 727.5c-34.4 0-62.3 27.9-62.3 62.3s27.9 62.3 62.3 62.3 62.3-27.9 62.3-62.3c0-34.3-27.9-62.3-62.3-62.3z m0 84.6c-12.3 0-22.3-10-22.3-22.3s10-22.3 22.3-22.3 22.3 10 22.3 22.3-10 22.3-22.3 22.3zM847.2 744.8c-12.6-11-29.1-17.3-45.3-17.3-17 0-32.2 6.9-42.9 19.4-9.6 11.3-14.9 26.5-14.9 42.9 0 34.4 27.9 62.3 62.3 62.3s62.3-27.9 62.3-62.3c0-16.7-7.9-33.1-21.5-45z m-40.8 67.3c-12.3 0-22.3-10-22.3-22.3 0-10.3 4.7-22.3 17.8-22.3 13.5 0 26.8 11 26.8 22.3 0 12.3-10 22.3-22.3 22.3z" fill="#d81e06" p-id="4237"></path></svg>