<?xml version="1.0" standalone="no"?><!DOCTYPE svg PUBLIC "-//W3C//DTD SVG 1.1//EN" "http://www.w3.org/Graphics/SVG/1.1/DTD/svg11.dtd"><svg t="1582618615457" class="icon" viewBox="0 0 1024 1024" version="1.1" xmlns="http://www.w3.org/2000/svg" p-id="2410" width="20" height="20" xmlns:xlink="http://www.w3.org/1999/xlink"><defs><style type="text/css"></style></defs><path d="M887.924364 644.049455a616.424727 616.424727 0 0 1-59.392 82.385454c-3.746909 4.514909-27.741091 25.856-46.429091 9.681455-18.804364-16.290909-2.094545-41.239273 0-45.986909 22.993455-53.341091 45.986909-91.927273 45.986909-184.017455 0-92.066909-45.986909-184.040727-138.053818-275.991273a215.691636 215.691636 0 0 1-7.819637 33.326546c-31.115636 110.103273-145.524364 174.033455-255.627636 143.010909a202.356364 202.356364 0 0 1-36.538182-14.196364c-35.514182-15.522909-102.725818-14.196364-145.733818 21.876364-33.000727 27.624727-60.392727 68.980364-60.392727 114.967273 0 138.053818 80.756364 168.96 47.406545 207.010909-22.760727 15.173818-41.890909-2.536727-45.986909-7.470546-22.202182-25.972364-43.333818-54.225455-61.253818-84.48H45.986909A45.963636 45.963636 0 0 1 0 598.178909v-184.133818c0-25.413818 20.573091-45.986909 45.986909-45.986909h31.232C109.800727 187.112727 238.359273 32 440.552727 4.421818a207.476364 207.476364 0 0 1 51.479273-4.189091C496.756364 0 501.387636 0 506.112 0 745.890909 0 898.932364 168.192 934.865455 367.941818h31.232c25.413818 0 45.986909 20.573091 45.986909 45.986909v184.040728c0 24.203636-18.804364 44.311273-43.008 45.847272a483.653818 483.653818 0 0 1-373.457455 336.826182 45.917091 45.917091 0 0 1-43.543273 31.255273H460.101818a45.963636 45.963636 0 1 1 0-91.950546h91.973818c13.730909 0 26.065455 6.050909 34.536728 15.592728a437.317818 437.317818 0 0 0 334.196363-291.490909h-32.907636z m-532.619637 111.104a23.04 23.04 0 0 1 25.506909-38.283637c42.472727 28.276364 84.037818 42.123636 125.300364 42.123637 41.239273 0 82.827636-13.847273 125.300364-42.123637a22.970182 22.970182 0 0 1 32.116363 5.492364 22.970182 22.970182 0 0 1-5.515636 32.116363l-1.093818 0.791273c-49.501091 33.093818-99.979636 49.803636-150.690909 49.803637-50.734545 0-101.329455-16.802909-150.923637-49.92z" p-id="2411" fill="#333333"></path></svg>